Coordinates
version=1
nRows=11
nColumns=42
inDegrees=yes

Units are S.I. units (second, meters, Newtons, ...)
If the header above contains a line with 'inDegrees', this indicates whether rotational values are in degrees (yes) or radians (no).

endheader
time	pelvis_tilt	pelvis_list	pelvis_rotation	pelvis_tx	pelvis_ty	pelvis_tz	hip_flexion_r	hip_adduction_r	hip_rotation_r	knee_angle_r	knee_adduction_r	knee_angle_r_beta	ankle_angle_r	subtalar_angle_r	mtp_angle_r	hip_flexion_l	hip_adduction_l	hip_rotation_l	knee_angle_l	knee_adduction_l	knee_angle_l_beta	ankle_angle_l	subtalar_angle_l	mtp_angle_l	lumbar_extension	lumbar_bending	lumbar_rotation	arm_flex_r	arm_add_r	arm_rot_r	elbow_flex_r	pro_sup_r	wrist_flex_r	wrist_dev_r	arm_flex_l	arm_add_l	arm_rot_l	elbow_flex_l	pro_sup_l	wrist_flex_l	wrist_dev_l
      1.28000000	      9.60387697	      1.45883008	      1.68187940	      0.89697669	      0.84124812	     -0.26843926	    -13.68050486	     -1.65658962	    -11.55525149	      7.75413658	      5.08675291	      0.13533521	     16.26231142	      8.14040969	     -7.50705362	     14.33580817	     -3.82729631	    -10.21544950	     57.40069085	     -0.73388455	      1.00183105	     11.32810428	    -12.41594599	     -7.50705362	    -20.03428653	     -1.20715571	      5.82236270	      1.54777001	    -14.44313865	    -10.22822666	     34.53434163	     90.00000001	      0.00000000	      0.00000000	     -1.85043522	     -9.65396481	    -22.08829895	     34.83762879	     90.00000001	      0.00000000	      0.00000000
      1.29000000	      9.34753107	      1.74120073	      1.14381445	      0.91130186	      0.84081941	     -0.26744025	    -15.19277373	     -1.95327357	    -10.91848115	      6.32410307	      5.34271923	      0.11037642	     16.01313629	      7.40005950	     -7.50630649	     15.63869635	     -3.38438456	    -10.85930490	     54.18028735	     -0.14287031	      0.94562440	     11.31018728	    -13.01158059	     -7.50630649	    -19.70939228	     -1.82907685	      6.81611718	      1.64851591	    -14.76750634	     -9.42120851	     34.94380949	     90.00000001	      0.00000000	      0.00000000	     -2.32210407	     -9.66496721	    -24.41639285	     34.09548341	     90.00000001	      0.00000000	      0.00000000
      1.30000000	      9.22405473	      1.97861115	      0.60000078	      0.92577351	      0.84005795	     -0.26646439	    -16.65030680	     -2.24064841	    -11.16545630	      5.33254205	      5.51525995	      0.09307042	     16.21387067	      7.97417979	     -7.50596662	     16.57951685	     -3.02475629	    -11.73230572	     50.56288202	      0.30747569	      0.88248877	     11.37503505	    -13.26538821	     -7.50596662	    -19.51227693	     -2.38632045	      7.84502992	      1.73841086	    -15.06306158	     -9.02120753	     35.42877495	     90.00000001	      0.00000000	      0.00000000	     -2.92171935	     -9.86910063	    -25.82240065	     33.49224365	     90.00000001	      0.00000000	      0.00000000
      1.31000000	      9.11048978	      2.15849898	      0.09441240	      0.94032561	      0.83886537	     -0.26572543	    -18.02394553	     -2.51692119	    -11.62388670	      4.56326733	      5.73327259	      0.07964404	     16.47357842	      8.55250213	     -7.50558592	     17.33374601	     -2.70154359	    -12.63156150	     46.63863311	      0.69509068	      0.81399771	     11.33894931	    -13.49917275	     -7.50558592	    -19.31774557	     -2.83991604	      8.78626568	      1.87105934	    -15.45782897	     -8.41306708	     35.86416689	     90.00000001	      0.00000000	      0.00000000	     -3.47380917	     -9.95628895	    -27.90278111	     32.88991603	     90.00000001	      0.00000000	      0.00000000
      1.32000000	      8.87724328	      2.08140544	     -0.38328097	      0.95482637	      0.83710986	     -0.26475915	    -19.14510743	     -2.42218850	    -12.05689304	      3.97438236	      5.78065974	      0.06936606	     16.85347834	      9.23447772	     -7.50535156	     18.12598801	     -2.75290028	    -13.51443397	     42.62261941	      1.11197661	      0.74390504	     11.59959118	    -13.18581367	     -7.50535156	    -18.98592714	     -3.03115192	      9.78468299	      2.03665842	    -15.81957097	     -7.96752974	     36.24006349	     90.00000001	      0.00000000	      0.00000000	     -4.08013082	    -10.17790438	    -29.38683474	     32.28127126	     90.00000001	      0.00000000	      0.00000000
      1.33000000	      8.75824687	      2.03803048	     -0.80297014	      0.96947867	      0.83518575	     -0.26421246	    -20.34225602	     -2.44805274	    -12.64064076	      3.56780425	      5.92872566	      0.06226993	     17.22705387	      9.85013615	     -7.50512087	     18.55993471	     -2.69357590	    -14.41625239	     38.29908522	      1.47926221	      0.66844514	     11.83674026	    -12.43954513	     -7.50512087	    -18.78224816	     -3.19627693	     10.61601374	      2.24479221	    -16.25398883	     -7.41550552	     36.60229023	     90.00000001	      0.00000000	      0.00000000	     -4.69448216	    -10.30384113	    -31.32740220	     31.75144701	     90.00000001	      0.00000000	      0.00000000
      1.34000000	      8.64339995	      1.94027582	     -1.13971589	      0.98417834	      0.83297438	     -0.26381537	    -21.44550733	     -2.38810679	    -13.33202404	      3.39409723	      5.99787280	      0.05923817	     17.61372176	     10.41613201	     -7.50486536	     18.86800625	     -2.63719283	    -15.30149685	     33.90130446	      1.74907712	      0.59168938	     12.10340969	    -11.16304167	     -7.50486536	    -18.58677514	     -3.27998300	     11.31312490	      2.48688333	    -16.70036676	     -6.79178805	     36.95573784	     90.00000001	      0.00000000	      0.00000000	     -5.28555490	    -10.39162611	    -33.64226365	     31.28067600	     90.00000001	      0.00000000	      0.00000000
      1.35000000	      8.43543513	      1.64485163	     -1.47526001	      0.99892566	      0.83040719	     -0.26342615	    -22.37605969	     -2.12659954	    -13.76806019	      3.34085289	      6.00333461	      0.05830888	     18.02310954	     10.92470123	     -7.50467616	     19.16184617	     -2.87942303	    -15.85132654	     29.60503575	      2.29722296	      0.51670535	     12.47614860	     -9.32126932	     -7.50467616	    -18.29527707	     -3.14422675	     12.04161084	      2.74762946	    -17.16031331	     -6.32804556	     37.21448539	     90.00000001	      0.00000000	      0.00000000	     -5.96408617	    -10.52996424	    -35.41640863	     30.83356627	     90.00000001	      0.00000000	      0.00000000
      1.36000000	      8.39212342	      1.53373687	     -1.81055830	      1.01392642	      0.82788875	     -0.26335547	    -23.45116410	     -2.16129613	    -14.31309310	      3.45166357	      6.05306974	      0.06024289	     18.37623820	     11.50132848	     -7.50429913	     19.14303237	     -2.80508091	    -16.73391791	     25.36337845	      2.53963782	      0.44267446	     12.75612854	     -6.96271410	     -7.50429913	    -18.16653758	     -3.19021698	     12.54522055	      3.05760693	    -17.64380488	     -5.53667429	     37.55740298	     90.00000001	      0.00000000	      0.00000000	     -6.41868605	    -10.48490606	    -38.89070933	     30.31169627	     90.00000001	      0.00000000	      0.00000000
      1.37000000	      8.30573020	      1.20235365	     -2.10287364	      1.02886739	      0.82521534	     -0.26320030	    -24.43884450	     -1.91324340	    -14.54022034	      3.59157611	      5.95852599	      0.06268483	     18.60912678	     11.87162882	     -7.50411866	     19.10022649	     -3.08139958	    -16.99639952	     21.45142614	      3.17167758	      0.37439802	     13.16272798	     -4.53653545	     -7.50411866	    -18.01997230	     -2.99716279	     13.08640608	      3.38397225	    -18.06284540	     -5.19914661	     37.81059319	     90.00000001	      0.00000000	      0.00000000	     -7.13990322	    -10.62703294	    -40.45167231	     29.92872007	     90.00000001	      0.00000000	      0.00000000
      1.38000000	      8.26328359	      0.96991535	     -2.45094689	      1.04404619	      0.82255184	     -0.26323697	    -25.42301296	     -1.92461274	    -14.67756755	      3.89890614	      5.95849646	      0.06804875	     18.77605855	     12.33344398	     -7.50366295	     19.04338830	     -3.24578137	    -17.54541996	     18.10092993	      3.58708921	      0.31592083	     13.36655020	     -1.81604132	     -7.50366295	    -17.89209846	     -2.91285982	     13.51948749	      3.71184584	    -18.50573946	     -4.56401053	     38.10874946	     90.00000001	      0.00000000	      0.00000000	     -7.52729630	    -10.58364635	    -44.00096964	     29.34159507	     90.00000001	      0.00000000	      0.00000000
